G75*
G70*
%OFA0B0*%
%FSLAX24Y24*%
%IPPOS*%
%LPD*%
%AMOC8*
5,1,8,0,0,1.08239X$1,22.5*
%
%ADD10C,0.0060*%
%ADD11C,0.0100*%
%ADD12R,0.0320X0.0010*%
%ADD13R,0.0340X0.0010*%
%ADD14R,0.0120X0.0010*%
%ADD15R,0.0420X0.0010*%
%ADD16R,0.0560X0.0010*%
%ADD17R,0.0680X0.0010*%
%ADD18R,0.0780X0.0010*%
%ADD19R,0.0880X0.0010*%
%ADD20R,0.0960X0.0010*%
%ADD21R,0.1020X0.0010*%
%ADD22R,0.1100X0.0010*%
%ADD23R,0.1160X0.0010*%
%ADD24R,0.1220X0.0010*%
%ADD25R,0.1290X0.0010*%
%ADD26R,0.1360X0.0010*%
%ADD27R,0.1410X0.0010*%
%ADD28R,0.1450X0.0010*%
%ADD29R,0.1500X0.0010*%
%ADD30R,0.1530X0.0010*%
%ADD31R,0.1570X0.0010*%
%ADD32R,0.1630X0.0010*%
%ADD33R,0.1670X0.0010*%
%ADD34R,0.1710X0.0010*%
%ADD35R,0.1750X0.0010*%
%ADD36R,0.1790X0.0010*%
%ADD37R,0.1820X0.0010*%
%ADD38R,0.1860X0.0010*%
%ADD39R,0.1890X0.0010*%
%ADD40R,0.1930X0.0010*%
%ADD41R,0.1950X0.0010*%
%ADD42R,0.1990X0.0010*%
%ADD43R,0.2030X0.0010*%
%ADD44R,0.2050X0.0010*%
%ADD45R,0.2090X0.0010*%
%ADD46R,0.2120X0.0010*%
%ADD47R,0.0910X0.0010*%
%ADD48R,0.0860X0.0010*%
%ADD49R,0.0790X0.0010*%
%ADD50R,0.0760X0.0010*%
%ADD51R,0.0770X0.0010*%
%ADD52R,0.0740X0.0010*%
%ADD53R,0.0710X0.0010*%
%ADD54R,0.0720X0.0010*%
%ADD55R,0.0690X0.0010*%
%ADD56R,0.0670X0.0010*%
%ADD57R,0.0650X0.0010*%
%ADD58R,0.0630X0.0010*%
%ADD59R,0.0610X0.0010*%
%ADD60R,0.0050X0.0010*%
%ADD61R,0.0620X0.0010*%
%ADD62R,0.0600X0.0010*%
%ADD63R,0.0090X0.0010*%
%ADD64R,0.0080X0.0010*%
%ADD65R,0.0110X0.0010*%
%ADD66R,0.0590X0.0010*%
%ADD67R,0.0580X0.0010*%
%ADD68R,0.0150X0.0010*%
%ADD69R,0.0140X0.0010*%
%ADD70R,0.0570X0.0010*%
%ADD71R,0.0180X0.0010*%
%ADD72R,0.0190X0.0010*%
%ADD73R,0.0200X0.0010*%
%ADD74R,0.0550X0.0010*%
%ADD75R,0.0210X0.0010*%
%ADD76R,0.0220X0.0010*%
%ADD77R,0.0540X0.0010*%
%ADD78R,0.0230X0.0010*%
%ADD79R,0.0240X0.0010*%
%ADD80R,0.0250X0.0010*%
%ADD81R,0.0260X0.0010*%
%ADD82R,0.0530X0.0010*%
%ADD83R,0.0280X0.0010*%
%ADD84R,0.0270X0.0010*%
%ADD85R,0.0520X0.0010*%
%ADD86R,0.0290X0.0010*%
%ADD87R,0.0310X0.0010*%
%ADD88R,0.0300X0.0010*%
%ADD89R,0.0510X0.0010*%
%ADD90R,0.0500X0.0010*%
%ADD91R,0.0330X0.0010*%
%ADD92R,0.0350X0.0010*%
%ADD93R,0.0490X0.0010*%
%ADD94R,0.0360X0.0010*%
%ADD95R,0.0370X0.0010*%
%ADD96R,0.0480X0.0010*%
%ADD97R,0.0470X0.0010*%
%ADD98R,0.0460X0.0010*%
%ADD99R,0.0450X0.0010*%
%ADD100R,0.0440X0.0010*%
%ADD101R,0.0430X0.0010*%
%ADD102R,0.0410X0.0010*%
%ADD103R,0.0750X0.0010*%
%ADD104R,0.0640X0.0010*%
%ADD105R,0.0730X0.0010*%
%ADD106R,0.0700X0.0010*%
%ADD107R,0.0400X0.0010*%
%ADD108R,0.0830X0.0010*%
%ADD109R,0.0870X0.0010*%
%ADD110R,0.0390X0.0010*%
%ADD111R,0.0660X0.0010*%
%ADD112R,0.0990X0.0010*%
%ADD113R,0.1010X0.0010*%
%ADD114R,0.1040X0.0010*%
%ADD115R,0.1070X0.0010*%
%ADD116R,0.1130X0.0010*%
%ADD117R,0.0380X0.0010*%
%ADD118R,0.1190X0.0010*%
%ADD119R,0.0170X0.0010*%
%ADD120R,0.1250X0.0010*%
%ADD121R,0.1270X0.0010*%
%ADD122R,0.0160X0.0010*%
%ADD123R,0.1310X0.0010*%
%ADD124R,0.1330X0.0010*%
%ADD125R,0.1350X0.0010*%
%ADD126R,0.1370X0.0010*%
%ADD127R,0.1390X0.0010*%
%ADD128R,0.1430X0.0010*%
%ADD129R,0.1470X0.0010*%
%ADD130R,0.1480X0.0010*%
%ADD131R,0.1510X0.0010*%
%ADD132R,0.0030X0.0010*%
%ADD133R,0.1540X0.0010*%
%ADD134R,0.1550X0.0010*%
%ADD135R,0.1590X0.0010*%
%ADD136R,0.1600X0.0010*%
%ADD137R,0.1610X0.0010*%
%ADD138R,0.1640X0.0010*%
%ADD139R,0.1660X0.0010*%
%ADD140R,0.1680X0.0010*%
%ADD141R,0.1690X0.0010*%
%ADD142R,0.1700X0.0010*%
%ADD143R,0.1720X0.0010*%
%ADD144R,0.1230X0.0010*%
%ADD145R,0.0020X0.0010*%
%ADD146R,0.0130X0.0010*%
%ADD147R,0.0100X0.0010*%
%ADD148R,0.0040X0.0010*%
%ADD149R,0.0010X0.0010*%
%ADD150R,0.0070X0.0010*%
%ADD151R,0.0060X0.0010*%
%ADD152R,0.1340X0.0010*%
%ADD153R,0.1920X0.0010*%
%ADD154R,0.1910X0.0010*%
%ADD155R,0.1900X0.0010*%
%ADD156R,0.1880X0.0010*%
%ADD157R,0.1050X0.0010*%
%ADD158R,0.1210X0.0010*%
%ADD159R,0.1580X0.0010*%
%ADD160R,0.1730X0.0010*%
%ADD161R,0.1810X0.0010*%
%ADD162R,0.1870X0.0010*%
%ADD163R,0.1960X0.0010*%
%ADD164R,0.2130X0.0010*%
%ADD165R,0.2170X0.0010*%
%ADD166R,0.2190X0.0010*%
%ADD167R,0.2210X0.0010*%
%ADD168R,0.1080X0.0010*%
%ADD169R,0.1000X0.0010*%
%ADD170R,0.0940X0.0010*%
%ADD171R,0.0800X0.0010*%
%ADD172R,0.0810X0.0010*%
%ADD173R,0.1170X0.0010*%
%ADD174R,0.1280X0.0010*%
%ADD175R,0.1560X0.0010*%
%ADD176R,0.1520X0.0010*%
%ADD177R,0.1460X0.0010*%
%ADD178R,0.1440X0.0010*%
%ADD179R,0.0820X0.0010*%
%ADD180R,0.0930X0.0010*%
%ADD181R,0.2110X0.0010*%
%ADD182R,0.2080X0.0010*%
%ADD183R,0.2020X0.0010*%
%ADD184R,0.1850X0.0010*%
%ADD185R,0.1780X0.0010*%
%ADD186R,0.1740X0.0010*%
%ADD187R,0.1650X0.0010*%
%ADD188R,0.1490X0.0010*%
%ADD189R,0.1380X0.0010*%
%ADD190C,0.0220*%
%ADD191C,0.0050*%
%ADD192R,0.0300X0.0180*%
%ADD193C,0.0090*%
%ADD194C,0.0080*%
%ADD195R,0.0100X0.0200*%
%ADD196R,0.0050X0.0150*%
%ADD197R,0.0100X0.0100*%
%ADD198C,0.0030*%
D10*
X000378Y001654D02*
X003922Y001654D01*
X003922Y007264D01*
X003922Y009036D02*
X003922Y014646D01*
X000378Y014646D01*
X000378Y001654D01*
X003070Y003480D02*
X003400Y003650D01*
X003300Y003650D01*
X003400Y003650D02*
X003070Y003820D01*
X003070Y003480D01*
X005151Y001120D02*
X005151Y000947D01*
X005238Y000860D01*
X005325Y000947D01*
X005325Y001120D01*
X005446Y001120D02*
X005576Y001120D01*
X005620Y001077D01*
X005620Y000990D01*
X005576Y000947D01*
X005446Y000947D01*
X005533Y000947D02*
X005620Y000860D01*
X005741Y000860D02*
X005741Y001120D01*
X005914Y001120D01*
X006035Y001120D02*
X006035Y000860D01*
X005914Y000860D02*
X005741Y000860D01*
X005741Y000990D02*
X005827Y000990D01*
X006035Y000990D02*
X006122Y000990D01*
X006035Y001120D02*
X006209Y001120D01*
X005446Y001120D02*
X005446Y000860D01*
X008610Y008130D02*
X008610Y008260D01*
X008653Y008303D01*
X008740Y008303D01*
X008783Y008260D01*
X008783Y008130D01*
X008783Y008217D02*
X008870Y008303D01*
X008870Y008130D02*
X008610Y008130D01*
X008610Y008425D02*
X008610Y008598D01*
X008610Y008511D02*
X008870Y008511D01*
X008827Y008719D02*
X008870Y008763D01*
X008870Y008849D01*
X008827Y008893D01*
X008870Y009014D02*
X008610Y009014D01*
X008653Y008893D02*
X008610Y008849D01*
X008610Y008763D01*
X008653Y008719D01*
X008827Y008719D01*
X008783Y009014D02*
X008610Y009187D01*
X008697Y009309D02*
X008610Y009395D01*
X008870Y009395D01*
X008870Y009309D02*
X008870Y009482D01*
X008870Y009187D02*
X008740Y009057D01*
X007840Y009646D02*
X007580Y009646D01*
X007580Y009776D01*
X007623Y009820D01*
X007710Y009820D01*
X007753Y009776D01*
X007753Y009646D01*
X007753Y009733D02*
X007840Y009820D01*
X007797Y009941D02*
X007840Y009984D01*
X007840Y010071D01*
X007797Y010114D01*
X007753Y010114D01*
X007710Y010071D01*
X007710Y009984D01*
X007667Y009941D01*
X007623Y009941D01*
X007580Y009984D01*
X007580Y010071D01*
X007623Y010114D01*
X007580Y010235D02*
X007580Y010409D01*
X007580Y010322D02*
X007840Y010322D01*
X007972Y012780D02*
X007972Y013007D01*
X008142Y013007D01*
X008199Y012950D01*
X008199Y012780D01*
X008340Y012780D02*
X008340Y013007D01*
X008454Y013120D01*
X008567Y013007D01*
X008567Y012780D01*
X008709Y012837D02*
X008765Y012780D01*
X008936Y012780D01*
X008936Y012723D02*
X008936Y013007D01*
X008765Y013007D01*
X008709Y012950D01*
X008709Y012837D01*
X008567Y012950D02*
X008340Y012950D01*
X007835Y013007D02*
X007779Y013007D01*
X007665Y012893D01*
X007665Y012780D02*
X007665Y013007D01*
X007524Y012950D02*
X007524Y012893D01*
X007297Y012893D01*
X007297Y012837D02*
X007297Y012950D01*
X007354Y013007D01*
X007467Y013007D01*
X007524Y012950D01*
X007467Y012780D02*
X007354Y012780D01*
X007297Y012837D01*
X007165Y012780D02*
X007108Y012837D01*
X007108Y013064D01*
X007051Y013007D02*
X007165Y013007D01*
X006919Y013007D02*
X006806Y013007D01*
X006862Y013064D02*
X006862Y012837D01*
X006919Y012780D01*
X006664Y012780D02*
X006494Y012780D01*
X006437Y012837D01*
X006494Y012893D01*
X006664Y012893D01*
X006664Y012950D02*
X006664Y012780D01*
X006664Y012950D02*
X006608Y013007D01*
X006494Y013007D01*
X006296Y013064D02*
X006296Y012950D01*
X006239Y012893D01*
X006069Y012893D01*
X006069Y012780D02*
X006069Y013120D01*
X006239Y013120D01*
X006296Y013064D01*
X005942Y012837D02*
X005942Y012780D01*
X005885Y012780D01*
X005885Y012837D01*
X005942Y012837D01*
X005743Y012837D02*
X005743Y013007D01*
X005743Y012837D02*
X005687Y012780D01*
X005630Y012837D01*
X005573Y012780D01*
X005517Y012837D01*
X005517Y013007D01*
X005375Y013007D02*
X005375Y012837D01*
X005318Y012780D01*
X005262Y012837D01*
X005205Y012780D01*
X005148Y012837D01*
X005148Y013007D01*
X005007Y013007D02*
X005007Y012837D01*
X004950Y012780D01*
X004893Y012837D01*
X004837Y012780D01*
X004780Y012837D01*
X004780Y013007D01*
X004662Y013580D02*
X004662Y013920D01*
X004775Y013920D02*
X004548Y013920D01*
X004407Y013920D02*
X004293Y013920D01*
X004350Y013920D02*
X004350Y013637D01*
X004293Y013580D01*
X004237Y013580D01*
X004180Y013637D01*
X004237Y014180D02*
X004180Y014237D01*
X004237Y014180D02*
X004293Y014180D01*
X004350Y014237D01*
X004350Y014520D01*
X004293Y014520D02*
X004407Y014520D01*
X004548Y014520D02*
X004775Y014520D01*
X004662Y014520D02*
X004662Y014180D01*
X004917Y014180D02*
X004917Y014407D01*
X005030Y014520D01*
X005143Y014407D01*
X005143Y014180D01*
X005285Y014237D02*
X005342Y014180D01*
X005455Y014180D01*
X005512Y014237D01*
X005512Y014350D01*
X005398Y014350D01*
X005285Y014237D02*
X005285Y014464D01*
X005342Y014520D01*
X005455Y014520D01*
X005512Y014464D01*
X005828Y014780D02*
X005771Y014837D01*
X005771Y015064D01*
X005715Y015007D02*
X005828Y015007D01*
X005960Y014950D02*
X006017Y015007D01*
X006130Y015007D01*
X006187Y014950D01*
X006187Y014780D01*
X006328Y014837D02*
X006328Y014950D01*
X006385Y015007D01*
X006499Y015007D01*
X006555Y014950D01*
X006555Y014893D01*
X006328Y014893D01*
X006328Y014837D02*
X006385Y014780D01*
X006499Y014780D01*
X006447Y014520D02*
X006390Y014464D01*
X006390Y014237D01*
X006617Y014464D01*
X006617Y014237D01*
X006560Y014180D01*
X006447Y014180D01*
X006390Y014237D01*
X006248Y014180D02*
X006022Y014180D01*
X006248Y014407D01*
X006248Y014464D01*
X006192Y014520D01*
X006078Y014520D01*
X006022Y014464D01*
X005960Y014780D02*
X005960Y015120D01*
X005899Y015380D02*
X005899Y015720D01*
X006126Y015380D01*
X006126Y015720D01*
X006267Y015720D02*
X006267Y015380D01*
X006267Y015493D02*
X006494Y015720D01*
X006324Y015550D02*
X006494Y015380D01*
X006635Y015380D02*
X006862Y015720D01*
X007004Y015720D02*
X007004Y015493D01*
X007117Y015380D01*
X007231Y015493D01*
X007231Y015720D01*
X007372Y015664D02*
X007429Y015720D01*
X007542Y015720D01*
X007599Y015664D01*
X007599Y015607D01*
X007372Y015380D01*
X007599Y015380D01*
X007547Y015120D02*
X007547Y014780D01*
X007292Y014837D02*
X007235Y014780D01*
X007122Y014780D01*
X007065Y014837D01*
X007122Y014950D02*
X007235Y014950D01*
X007292Y014893D01*
X007292Y014837D01*
X007292Y015064D02*
X007235Y015120D01*
X007122Y015120D01*
X007065Y015064D01*
X007065Y015007D01*
X007122Y014950D01*
X007433Y015120D02*
X007660Y015120D01*
X007802Y014950D02*
X008029Y014950D01*
X008170Y014780D02*
X008340Y014780D01*
X008397Y014837D01*
X008397Y015064D01*
X008340Y015120D01*
X008170Y015120D01*
X008170Y014780D01*
X008109Y014520D02*
X008222Y014407D01*
X008336Y014520D01*
X008336Y014180D01*
X008477Y014237D02*
X008534Y014293D01*
X008704Y014293D01*
X008704Y014350D02*
X008704Y014180D01*
X008534Y014180D01*
X008477Y014237D01*
X008534Y014407D02*
X008647Y014407D01*
X008704Y014350D01*
X008845Y014180D02*
X008959Y014180D01*
X008902Y014180D02*
X008902Y014520D01*
X008845Y014520D01*
X009091Y014350D02*
X009148Y014407D01*
X009261Y014407D01*
X009318Y014350D01*
X009318Y014293D01*
X009091Y014293D01*
X009091Y014237D02*
X009091Y014350D01*
X009091Y014237D02*
X009148Y014180D01*
X009261Y014180D01*
X009261Y013807D02*
X009148Y013807D01*
X009091Y013750D01*
X009091Y013637D01*
X009148Y013580D01*
X009261Y013580D01*
X009318Y013693D02*
X009091Y013693D01*
X008959Y013580D02*
X008845Y013580D01*
X008902Y013580D02*
X008902Y013920D01*
X008845Y013920D01*
X008704Y013750D02*
X008704Y013580D01*
X008534Y013580D01*
X008477Y013637D01*
X008534Y013693D01*
X008704Y013693D01*
X008704Y013750D02*
X008647Y013807D01*
X008534Y013807D01*
X008336Y013920D02*
X008336Y013580D01*
X008109Y013580D02*
X008109Y013920D01*
X008222Y013807D01*
X008336Y013920D01*
X008109Y014180D02*
X008109Y014520D01*
X008538Y014780D02*
X008652Y014780D01*
X008595Y014780D02*
X008595Y015007D01*
X008538Y015007D01*
X008595Y015120D02*
X008595Y015177D01*
X008590Y015380D02*
X008590Y015720D01*
X008477Y015720D02*
X008704Y015720D01*
X008845Y015607D02*
X008959Y015720D01*
X009072Y015607D01*
X009072Y015380D01*
X009214Y015437D02*
X009270Y015380D01*
X009384Y015380D01*
X009440Y015437D01*
X009440Y015550D01*
X009327Y015550D01*
X009214Y015437D02*
X009214Y015664D01*
X009270Y015720D01*
X009384Y015720D01*
X009440Y015664D01*
X009072Y015550D02*
X008845Y015550D01*
X008845Y015607D02*
X008845Y015380D01*
X008841Y015007D02*
X008784Y014950D01*
X008841Y014893D01*
X008954Y014893D01*
X009011Y014837D01*
X008954Y014780D01*
X008784Y014780D01*
X008841Y015007D02*
X009011Y015007D01*
X009152Y014950D02*
X009152Y014837D01*
X009209Y014780D01*
X009379Y014780D01*
X009379Y015007D02*
X009209Y015007D01*
X009152Y014950D01*
X009521Y014950D02*
X009521Y014837D01*
X009577Y014780D01*
X009691Y014780D01*
X009747Y014837D01*
X009747Y014950D01*
X009691Y015007D01*
X009577Y015007D01*
X009521Y014950D01*
X009889Y015007D02*
X010002Y014780D01*
X010116Y015007D01*
X010257Y014950D02*
X010257Y014837D01*
X010314Y014780D01*
X010427Y014780D01*
X010484Y014893D02*
X010257Y014893D01*
X010257Y014950D02*
X010314Y015007D01*
X010427Y015007D01*
X010484Y014950D01*
X010484Y014893D01*
X010626Y014893D02*
X010739Y015007D01*
X010796Y015007D01*
X010932Y015007D02*
X010932Y014837D01*
X010989Y014780D01*
X011159Y014780D01*
X011159Y014723D02*
X011103Y014667D01*
X011046Y014667D01*
X011159Y014723D02*
X011159Y015007D01*
X011301Y015120D02*
X011414Y015007D01*
X011414Y014893D01*
X011301Y014780D01*
X011357Y014464D02*
X011357Y014237D01*
X011414Y014180D01*
X011546Y014237D02*
X011546Y014350D01*
X011603Y014407D01*
X011716Y014407D01*
X011773Y014350D01*
X011773Y014293D01*
X011546Y014293D01*
X011546Y014237D02*
X011603Y014180D01*
X011716Y014180D01*
X011915Y014180D02*
X011915Y014407D01*
X012028Y014407D02*
X012085Y014407D01*
X012028Y014407D02*
X011915Y014293D01*
X011915Y013807D02*
X011915Y013580D01*
X011915Y013693D02*
X012028Y013807D01*
X012085Y013807D01*
X011773Y013750D02*
X011773Y013693D01*
X011546Y013693D01*
X011546Y013637D02*
X011546Y013750D01*
X011603Y013807D01*
X011716Y013807D01*
X011773Y013750D01*
X011716Y013580D02*
X011603Y013580D01*
X011546Y013637D01*
X011414Y013580D02*
X011357Y013637D01*
X011357Y013864D01*
X011301Y013807D02*
X011414Y013807D01*
X011159Y013750D02*
X011159Y013637D01*
X011103Y013580D01*
X010932Y013580D01*
X010932Y013467D02*
X010932Y013807D01*
X011103Y013807D01*
X011159Y013750D01*
X010791Y013750D02*
X010791Y013580D01*
X010621Y013580D01*
X010564Y013637D01*
X010621Y013693D01*
X010791Y013693D01*
X010791Y013750D02*
X010734Y013807D01*
X010621Y013807D01*
X010423Y013807D02*
X010253Y013807D01*
X010196Y013750D01*
X010196Y013637D01*
X010253Y013580D01*
X010423Y013580D01*
X010423Y013920D01*
X010423Y014180D02*
X010253Y014180D01*
X010196Y014237D01*
X010196Y014350D01*
X010253Y014407D01*
X010423Y014407D01*
X010423Y014520D02*
X010423Y014180D01*
X010564Y014237D02*
X010621Y014293D01*
X010791Y014293D01*
X010791Y014350D02*
X010791Y014180D01*
X010621Y014180D01*
X010564Y014237D01*
X010621Y014407D02*
X010734Y014407D01*
X010791Y014350D01*
X010932Y014407D02*
X011103Y014407D01*
X011159Y014350D01*
X011159Y014237D01*
X011103Y014180D01*
X010932Y014180D01*
X010932Y014067D02*
X010932Y014407D01*
X011301Y014407D02*
X011414Y014407D01*
X010626Y014780D02*
X010626Y015007D01*
X010545Y015380D02*
X010375Y015380D01*
X010319Y015437D01*
X010319Y015550D01*
X010375Y015607D01*
X010545Y015607D01*
X010545Y015720D02*
X010545Y015380D01*
X010687Y015437D02*
X010744Y015493D01*
X010914Y015493D01*
X010914Y015550D02*
X010914Y015380D01*
X010744Y015380D01*
X010687Y015437D01*
X010744Y015607D02*
X010857Y015607D01*
X010914Y015550D01*
X011055Y015607D02*
X011055Y015267D01*
X011055Y015380D02*
X011225Y015380D01*
X011282Y015437D01*
X011282Y015550D01*
X011225Y015607D01*
X011055Y015607D01*
X011424Y015607D02*
X011537Y015607D01*
X011480Y015664D02*
X011480Y015437D01*
X011537Y015380D01*
X011669Y015437D02*
X011669Y015550D01*
X011726Y015607D01*
X011839Y015607D01*
X011896Y015550D01*
X011896Y015493D01*
X011669Y015493D01*
X011669Y015437D02*
X011726Y015380D01*
X011839Y015380D01*
X012037Y015380D02*
X012037Y015607D01*
X012037Y015493D02*
X012151Y015607D01*
X012208Y015607D01*
X013185Y014520D02*
X012958Y014180D01*
X012817Y014237D02*
X012817Y014407D01*
X012817Y014237D02*
X012760Y014180D01*
X012703Y014237D01*
X012647Y014180D01*
X012590Y014237D01*
X012590Y014407D01*
X011518Y013007D02*
X011575Y012950D01*
X011575Y012780D01*
X011462Y012780D02*
X011462Y012950D01*
X011518Y013007D01*
X011462Y012950D02*
X011405Y013007D01*
X011348Y013007D01*
X011348Y012780D01*
X011207Y012837D02*
X011207Y012950D01*
X011150Y013007D01*
X011037Y013007D01*
X010980Y012950D01*
X010980Y012837D01*
X011037Y012780D01*
X011150Y012780D01*
X011207Y012837D01*
X010839Y012780D02*
X010668Y012780D01*
X010612Y012837D01*
X010612Y012950D01*
X010668Y013007D01*
X010839Y013007D01*
X010484Y012837D02*
X010484Y012780D01*
X010427Y012780D01*
X010427Y012837D01*
X010484Y012837D01*
X010286Y012837D02*
X010229Y012780D01*
X010059Y012780D01*
X010116Y012893D02*
X010059Y012950D01*
X010116Y013007D01*
X010286Y013007D01*
X010229Y012893D02*
X010116Y012893D01*
X010229Y012893D02*
X010286Y012837D01*
X009927Y012780D02*
X009870Y012837D01*
X009870Y013064D01*
X009814Y013007D02*
X009927Y013007D01*
X009672Y012950D02*
X009672Y012780D01*
X009672Y012950D02*
X009615Y013007D01*
X009445Y013007D01*
X009445Y012780D01*
X009304Y012893D02*
X009077Y012893D01*
X009077Y012837D02*
X009077Y012950D01*
X009134Y013007D01*
X009247Y013007D01*
X009304Y012950D01*
X009304Y012893D01*
X009247Y012780D02*
X009134Y012780D01*
X009077Y012837D01*
X008936Y012723D02*
X008879Y012667D01*
X008822Y012667D01*
X009318Y013693D02*
X009318Y013750D01*
X009261Y013807D01*
X009827Y013807D02*
X009827Y013580D01*
X009827Y013750D02*
X010054Y013750D01*
X010054Y013807D02*
X010054Y013580D01*
X010054Y013807D02*
X009941Y013920D01*
X009827Y013807D01*
X009827Y014180D02*
X009827Y014407D01*
X009941Y014520D01*
X010054Y014407D01*
X010054Y014180D01*
X010054Y014350D02*
X009827Y014350D01*
X009950Y015380D02*
X009950Y015607D01*
X010064Y015720D01*
X010177Y015607D01*
X010177Y015380D01*
X010177Y015550D02*
X009950Y015550D01*
X008336Y015720D02*
X008222Y015720D01*
X008279Y015720D02*
X008279Y015437D01*
X008222Y015380D01*
X008165Y015380D01*
X008109Y015437D01*
X007183Y014577D02*
X007183Y014520D01*
X007183Y014407D02*
X007127Y014407D01*
X007183Y014407D02*
X007183Y014180D01*
X007127Y014180D02*
X007240Y014180D01*
X007372Y014180D02*
X007372Y014407D01*
X007542Y014407D01*
X007599Y014350D01*
X007599Y014180D01*
X007542Y013807D02*
X007372Y013807D01*
X007372Y013580D01*
X007240Y013580D02*
X007127Y013580D01*
X007183Y013580D02*
X007183Y013807D01*
X007127Y013807D01*
X007183Y013920D02*
X007183Y013977D01*
X006985Y013750D02*
X006985Y013637D01*
X006928Y013580D01*
X006758Y013580D01*
X006758Y013467D02*
X006758Y013807D01*
X006928Y013807D01*
X006985Y013750D01*
X006617Y013637D02*
X006560Y013580D01*
X006447Y013580D01*
X006390Y013637D01*
X006617Y013864D01*
X006617Y013637D01*
X006617Y013864D02*
X006560Y013920D01*
X006447Y013920D01*
X006390Y013864D01*
X006390Y013637D01*
X006248Y013580D02*
X006022Y013580D01*
X006135Y013580D02*
X006135Y013920D01*
X006022Y013807D01*
X005512Y013864D02*
X005455Y013920D01*
X005342Y013920D01*
X005285Y013864D01*
X005285Y013637D01*
X005342Y013580D01*
X005455Y013580D01*
X005512Y013637D01*
X005512Y013750D01*
X005398Y013750D01*
X005143Y013750D02*
X004917Y013750D01*
X004917Y013807D02*
X004917Y013580D01*
X005143Y013580D02*
X005143Y013807D01*
X005030Y013920D01*
X004917Y013807D01*
X004917Y014350D02*
X005143Y014350D01*
X005039Y014780D02*
X005039Y015007D01*
X005039Y014893D02*
X005153Y015007D01*
X005210Y015007D01*
X005285Y015380D02*
X005512Y015380D01*
X005653Y015380D02*
X005767Y015380D01*
X005710Y015380D02*
X005710Y015720D01*
X005653Y015720D02*
X005767Y015720D01*
X005285Y015720D02*
X005285Y015380D01*
X005143Y015550D02*
X004917Y015550D01*
X004775Y015720D02*
X004548Y015720D01*
X004662Y015720D02*
X004662Y015380D01*
X004539Y015120D02*
X004482Y015064D01*
X004482Y014780D01*
X004426Y014950D02*
X004539Y014950D01*
X004671Y014950D02*
X004671Y014837D01*
X004728Y014780D01*
X004841Y014780D01*
X004898Y014837D01*
X004898Y014950D01*
X004841Y015007D01*
X004728Y015007D01*
X004671Y014950D01*
X004350Y015380D02*
X004237Y015380D01*
X004180Y015437D01*
X004237Y015550D02*
X004180Y015607D01*
X004180Y015664D01*
X004237Y015720D01*
X004350Y015720D01*
X004407Y015664D01*
X004350Y015550D02*
X004237Y015550D01*
X004350Y015550D02*
X004407Y015493D01*
X004407Y015437D01*
X004350Y015380D01*
X004293Y015120D02*
X004180Y015007D01*
X004180Y014893D01*
X004293Y014780D01*
X006447Y014520D02*
X006560Y014520D01*
X006617Y014464D01*
X006758Y014407D02*
X006928Y014407D01*
X006985Y014350D01*
X006985Y014237D01*
X006928Y014180D01*
X006758Y014180D01*
X006758Y014067D02*
X006758Y014407D01*
X007542Y013807D02*
X007599Y013750D01*
X007599Y013580D01*
X013080Y008607D02*
X013193Y008720D01*
X013193Y008380D01*
X013080Y008380D02*
X013307Y008380D01*
D11*
X000150Y015850D02*
X000150Y000350D01*
X000350Y000150D01*
X013650Y000150D01*
X013850Y000350D01*
X013850Y015850D01*
X013650Y016050D01*
X000350Y016050D01*
X000150Y015850D01*
X005672Y007025D02*
X008428Y007025D01*
X008428Y005344D01*
X008428Y004556D02*
X008428Y002875D01*
X005672Y002875D01*
X005672Y007025D01*
D12*
X009593Y008320D03*
X011003Y009040D03*
X011633Y009040D03*
X011813Y009120D03*
X012033Y009820D03*
X012043Y009830D03*
X011743Y009910D03*
X011743Y010200D03*
X012123Y010210D03*
X012123Y010220D03*
X012303Y010830D03*
X013023Y010690D03*
X013023Y010680D03*
X013033Y010640D03*
X013033Y010630D03*
X013033Y010620D03*
X013033Y010610D03*
X013043Y010550D03*
X013043Y010540D03*
X013043Y010530D03*
X013043Y010520D03*
X013043Y010510D03*
X013043Y010500D03*
X013043Y010250D03*
X013043Y010240D03*
X013043Y010230D03*
X013043Y010220D03*
X013043Y010210D03*
X013043Y010200D03*
X013033Y010140D03*
X013033Y010130D03*
X013033Y010120D03*
X013033Y010110D03*
X013033Y010100D03*
X013023Y010070D03*
X013023Y010060D03*
X013023Y010050D03*
X011683Y011680D03*
X010503Y010230D03*
X010503Y010220D03*
X010893Y009910D03*
X011313Y009960D03*
X011323Y010150D03*
X009583Y010280D03*
X009583Y010290D03*
X009583Y010300D03*
X009583Y010310D03*
X009583Y010320D03*
X009583Y010330D03*
X009583Y010340D03*
X009583Y010350D03*
X009583Y010360D03*
X009583Y010370D03*
X009583Y010380D03*
X009583Y010390D03*
X009583Y010400D03*
X009583Y010410D03*
X009583Y010420D03*
X009583Y010430D03*
X009583Y010440D03*
X009583Y010450D03*
X009583Y010460D03*
X009583Y010470D03*
X009603Y010640D03*
X009613Y010700D03*
X009613Y010710D03*
D13*
X009653Y010860D03*
X009653Y010870D03*
X009663Y010890D03*
X009663Y010900D03*
X009663Y010910D03*
X009673Y010920D03*
X009673Y010930D03*
X009673Y010940D03*
X009683Y010960D03*
X009693Y010980D03*
X009693Y010990D03*
X009703Y011010D03*
X010343Y010840D03*
X010523Y010260D03*
X010613Y009800D03*
X010873Y009100D03*
X010983Y009050D03*
X011313Y009940D03*
X011313Y010180D03*
X011743Y010190D03*
X012013Y009800D03*
X012113Y010240D03*
X012113Y010250D03*
X013003Y009970D03*
X012983Y009900D03*
X012983Y009890D03*
X012973Y009870D03*
X012973Y009860D03*
X012973Y009850D03*
X012963Y009830D03*
X012953Y009800D03*
X012943Y009770D03*
X013003Y010780D03*
X012993Y010820D03*
X012983Y010850D03*
X012983Y010860D03*
X012973Y010880D03*
X012973Y010890D03*
X012973Y010900D03*
X012963Y010920D03*
X012953Y010940D03*
X012953Y010950D03*
X012943Y010980D03*
X011683Y011670D03*
X009593Y010160D03*
X009593Y010150D03*
X009593Y010140D03*
X009593Y010130D03*
X009593Y010120D03*
X009593Y010110D03*
X009593Y009260D03*
X009593Y009250D03*
X009593Y009240D03*
X009593Y009230D03*
X009593Y009220D03*
X009593Y009210D03*
X009593Y009200D03*
X009593Y009190D03*
X009593Y009180D03*
X009593Y009170D03*
X009593Y009160D03*
X009593Y009150D03*
X009593Y009140D03*
X009593Y009130D03*
X009593Y009120D03*
X009593Y009110D03*
X009593Y009100D03*
X009593Y009090D03*
X009593Y009080D03*
X009593Y009070D03*
X009593Y009060D03*
X009593Y009050D03*
X009593Y009040D03*
X009593Y009030D03*
X009593Y009020D03*
X009593Y009010D03*
X009593Y009000D03*
X009593Y008990D03*
X009593Y008980D03*
X009593Y008970D03*
X009593Y008960D03*
X009593Y008950D03*
X009593Y008940D03*
X009593Y008930D03*
X009593Y008920D03*
X009593Y008910D03*
X009593Y008900D03*
X009593Y008890D03*
X009593Y008880D03*
X009593Y008870D03*
X009593Y008860D03*
X009593Y008850D03*
X009593Y008840D03*
X009593Y008830D03*
X009593Y008820D03*
X009593Y008810D03*
X009593Y008800D03*
X009593Y008790D03*
X009593Y008780D03*
X009593Y008770D03*
X009593Y008760D03*
X009593Y008750D03*
X009593Y008740D03*
X009593Y008730D03*
X009593Y008720D03*
X009593Y008710D03*
X009593Y008700D03*
X009593Y008690D03*
X009593Y008680D03*
X009593Y008670D03*
X009593Y008660D03*
X009593Y008650D03*
X009593Y008640D03*
X009593Y008630D03*
X009593Y008620D03*
X009593Y008610D03*
X009593Y008600D03*
X009593Y008590D03*
X009593Y008580D03*
X009593Y008570D03*
X009593Y008560D03*
X009593Y008550D03*
X009593Y008540D03*
X009593Y008530D03*
X009593Y008520D03*
X009593Y008510D03*
X009593Y008500D03*
X009593Y008490D03*
X009593Y008480D03*
X009593Y008470D03*
X009593Y008460D03*
X009593Y008450D03*
X009593Y008440D03*
X009593Y008430D03*
X009593Y008420D03*
X009593Y008410D03*
X009593Y008400D03*
X009593Y008390D03*
X009593Y008380D03*
X009593Y008370D03*
X009593Y008360D03*
X009593Y008350D03*
X009593Y008340D03*
X009593Y008330D03*
D14*
X010763Y009940D03*
X010893Y010020D03*
X010893Y010070D03*
X010893Y010080D03*
X011003Y010180D03*
X011013Y009940D03*
X011003Y009930D03*
X010763Y010170D03*
X011393Y010000D03*
X011623Y009940D03*
X011743Y009860D03*
X011743Y010040D03*
X011743Y010050D03*
X011743Y010060D03*
X011743Y010070D03*
X011623Y010170D03*
X012683Y010090D03*
X011213Y008940D03*
X011323Y008480D03*
X009943Y010070D03*
X009953Y010100D03*
X009963Y010130D03*
X010413Y010940D03*
D15*
X010373Y010820D03*
X009953Y011440D03*
X009963Y011450D03*
X009973Y011460D03*
X010863Y011490D03*
X010943Y011670D03*
X011313Y011510D03*
X011683Y011630D03*
X011313Y012260D03*
X012643Y011480D03*
X012653Y011470D03*
X012663Y011460D03*
X012673Y011450D03*
X012683Y011430D03*
X012693Y011420D03*
X011303Y010230D03*
X010313Y009570D03*
X010303Y009580D03*
X009993Y009260D03*
X010003Y009250D03*
X009633Y009810D03*
X009633Y009820D03*
X009633Y009830D03*
X011323Y008490D03*
X012323Y009570D03*
X012333Y009580D03*
X012343Y009590D03*
X012673Y009300D03*
X012653Y009270D03*
X012643Y009260D03*
X012633Y009250D03*
X012623Y009240D03*
D16*
X012323Y008980D03*
X011313Y009300D03*
X011313Y009820D03*
X010323Y008970D03*
X009703Y009540D03*
X011313Y008500D03*
X012333Y011760D03*
X010313Y011770D03*
D17*
X010493Y011870D03*
X011913Y010450D03*
X012133Y010740D03*
X012143Y011870D03*
X009763Y009370D03*
X011323Y008510D03*
D18*
X011323Y008520D03*
X011313Y009340D03*
X010593Y011910D03*
D19*
X010613Y010720D03*
X011323Y008530D03*
D20*
X011313Y008540D03*
X011313Y009380D03*
D21*
X011313Y008550D03*
D22*
X011323Y008560D03*
X011313Y009430D03*
D23*
X011313Y009450D03*
X011323Y008570D03*
X011313Y012180D03*
D24*
X011313Y012170D03*
X011323Y011020D03*
X011313Y009470D03*
X011323Y008580D03*
D25*
X011318Y008590D03*
X011318Y009500D03*
D26*
X011313Y008600D03*
D27*
X011318Y008610D03*
X011318Y009560D03*
X011308Y011050D03*
D28*
X011318Y011340D03*
X011318Y009580D03*
X011318Y008620D03*
D29*
X011323Y008630D03*
X011313Y009610D03*
X011323Y011260D03*
X011323Y011270D03*
D30*
X011328Y011220D03*
X011328Y011210D03*
X011298Y011070D03*
X011318Y012110D03*
X011318Y009630D03*
X011318Y008640D03*
D31*
X011318Y008650D03*
X011318Y009660D03*
X011328Y011130D03*
X011328Y011140D03*
X011328Y011150D03*
X011318Y012100D03*
D32*
X011318Y009700D03*
X011318Y008660D03*
D33*
X011318Y008670D03*
X011318Y009730D03*
X011318Y010580D03*
D34*
X011318Y009770D03*
X011318Y008680D03*
D35*
X011318Y008690D03*
D36*
X011318Y008700D03*
D37*
X011313Y008710D03*
D38*
X011323Y008720D03*
D39*
X011318Y008730D03*
X011318Y010420D03*
X011318Y010430D03*
X011318Y012020D03*
D40*
X011318Y008740D03*
D41*
X011318Y008750D03*
X011318Y012000D03*
D42*
X011318Y011990D03*
X011318Y010630D03*
X011318Y008760D03*
D43*
X011318Y008770D03*
X011318Y010640D03*
D44*
X011318Y011970D03*
X011318Y008780D03*
D45*
X011318Y008790D03*
X011318Y010650D03*
D46*
X011313Y008800D03*
D47*
X011318Y009370D03*
X010698Y008810D03*
X011938Y008810D03*
X011328Y010980D03*
D48*
X010663Y011930D03*
X011313Y012220D03*
X010653Y008820D03*
X011973Y008820D03*
D49*
X012028Y008830D03*
X010608Y008830D03*
X012038Y011910D03*
X011318Y012230D03*
D50*
X012063Y011900D03*
X009803Y009290D03*
X009803Y009280D03*
X010583Y008840D03*
D51*
X009808Y009270D03*
X012048Y008840D03*
D52*
X012073Y008850D03*
X011313Y009330D03*
X010553Y008850D03*
X009793Y009310D03*
X010533Y010740D03*
D53*
X009778Y009340D03*
X010528Y008860D03*
D54*
X009783Y009330D03*
X011323Y010320D03*
X011333Y010960D03*
X010543Y011890D03*
X012103Y008860D03*
D55*
X012128Y008870D03*
X010718Y010450D03*
X009768Y009360D03*
X010508Y008870D03*
D56*
X010488Y008880D03*
X009758Y009380D03*
X010488Y010760D03*
X010468Y011860D03*
X011698Y011370D03*
X012158Y011860D03*
X012168Y008890D03*
X012148Y008880D03*
D57*
X012188Y008900D03*
X010468Y008890D03*
X010448Y008900D03*
X009748Y009410D03*
X012188Y011850D03*
D58*
X012208Y011840D03*
X011718Y011380D03*
X010988Y011550D03*
X010428Y011840D03*
X010408Y011830D03*
X011318Y010310D03*
X010428Y008910D03*
X009738Y009430D03*
X009738Y009440D03*
X012208Y008910D03*
D59*
X011318Y010510D03*
X010918Y011380D03*
X010378Y011810D03*
X011718Y011390D03*
X012238Y011820D03*
X010408Y008920D03*
X009728Y009460D03*
D60*
X010888Y010000D03*
X010448Y010960D03*
X011258Y008920D03*
X011368Y008920D03*
D61*
X012223Y008920D03*
X010463Y010770D03*
X010393Y011820D03*
X012223Y011830D03*
X009733Y009450D03*
D62*
X009723Y009470D03*
X009723Y009480D03*
X010373Y008940D03*
X010393Y008930D03*
X012243Y008930D03*
X012183Y010760D03*
X012253Y011810D03*
X010983Y011560D03*
X010363Y011800D03*
D63*
X010428Y010950D03*
X010728Y010120D03*
X010718Y010100D03*
X010718Y010090D03*
X010718Y010020D03*
X010718Y010010D03*
X010728Y010000D03*
X010728Y009990D03*
X011058Y010000D03*
X011058Y010010D03*
X011058Y010020D03*
X011068Y010040D03*
X011068Y010050D03*
X011068Y010060D03*
X011068Y010070D03*
X011058Y010100D03*
X011058Y010110D03*
X011048Y010130D03*
X011568Y010090D03*
X011568Y010080D03*
X011568Y010070D03*
X011568Y010060D03*
X011568Y010050D03*
X011568Y010040D03*
X011568Y010030D03*
X011568Y010020D03*
X011568Y010010D03*
X011578Y010000D03*
X011578Y009990D03*
X011578Y010110D03*
X011578Y010120D03*
X011748Y010100D03*
X011898Y009980D03*
X011908Y010000D03*
X011908Y010010D03*
X011918Y010040D03*
X011918Y010050D03*
X011918Y010060D03*
X011918Y010070D03*
X011918Y010080D03*
X011908Y010110D03*
X011908Y010120D03*
X011738Y010320D03*
X012348Y010570D03*
X011688Y011760D03*
X011238Y008930D03*
D64*
X011393Y008930D03*
X011743Y010010D03*
X011913Y010020D03*
X011913Y010030D03*
X011913Y010090D03*
X011913Y010100D03*
X012213Y010950D03*
X011323Y011450D03*
X011063Y010090D03*
X011063Y010080D03*
X011063Y010030D03*
X010893Y010010D03*
X010713Y010030D03*
X010713Y010040D03*
X010713Y010050D03*
X010713Y010060D03*
X010713Y010070D03*
X010713Y010080D03*
X010723Y010110D03*
D65*
X010738Y009970D03*
X010748Y009960D03*
X010758Y009950D03*
X011028Y009950D03*
X011028Y010160D03*
X011018Y010170D03*
X011318Y010500D03*
X011608Y010160D03*
X011598Y010150D03*
X011748Y010080D03*
X011738Y010030D03*
X011608Y009950D03*
X011598Y009960D03*
X011868Y009940D03*
X011878Y009950D03*
X011888Y010150D03*
X011878Y010160D03*
X011868Y010170D03*
X011418Y008940D03*
X010918Y011790D03*
X011318Y012270D03*
D66*
X010978Y011570D03*
X010908Y011390D03*
X010348Y011790D03*
X011728Y011400D03*
X012268Y011800D03*
X011308Y009810D03*
X012258Y008940D03*
X012278Y008950D03*
X009718Y009490D03*
D67*
X009713Y009500D03*
X009713Y009510D03*
X010353Y008950D03*
X011313Y010300D03*
X010443Y010780D03*
X010973Y011580D03*
X012283Y011790D03*
X012293Y008960D03*
D68*
X011188Y008950D03*
X010498Y009510D03*
X010798Y009920D03*
X010298Y010560D03*
X010098Y010370D03*
X010088Y010360D03*
X010078Y010350D03*
X010068Y010330D03*
X010058Y010320D03*
X010048Y010300D03*
X010038Y010290D03*
X010028Y010270D03*
X009948Y010040D03*
X012518Y010390D03*
X012528Y010380D03*
X012538Y010370D03*
X012548Y010350D03*
X012558Y010340D03*
X012568Y010330D03*
X012578Y010310D03*
X012588Y010300D03*
X012598Y010280D03*
D69*
X012593Y010290D03*
X012603Y010270D03*
X012613Y010260D03*
X012613Y010250D03*
X012623Y010240D03*
X012633Y010220D03*
X012643Y010200D03*
X012653Y010170D03*
X012683Y010040D03*
X012573Y010320D03*
X012343Y010560D03*
X012263Y010920D03*
X011693Y011750D03*
X010393Y010930D03*
X010073Y010340D03*
X010053Y010310D03*
X010033Y010280D03*
X010023Y010260D03*
X010013Y010250D03*
X010013Y010240D03*
X009983Y010180D03*
X009943Y010050D03*
X011313Y009260D03*
X011443Y008950D03*
X012133Y009510D03*
X011633Y009930D03*
D70*
X012308Y008970D03*
X010638Y010330D03*
X009708Y009530D03*
X009708Y009520D03*
X010338Y008960D03*
X010898Y011400D03*
X010328Y011780D03*
X011728Y011410D03*
X012308Y011780D03*
X012318Y011770D03*
D71*
X011693Y011740D03*
X012283Y010900D03*
X012443Y010460D03*
X012453Y010450D03*
X012463Y010440D03*
X012473Y010430D03*
X012673Y010010D03*
X012483Y009830D03*
X012473Y009820D03*
X012463Y009810D03*
X012453Y009800D03*
X012443Y009790D03*
X012433Y009780D03*
X012423Y009770D03*
X012413Y009760D03*
X012373Y009730D03*
X012363Y009720D03*
X012353Y009710D03*
X012343Y009700D03*
X012363Y009470D03*
X012353Y009460D03*
X012343Y009450D03*
X012113Y010010D03*
X011473Y008960D03*
X011163Y008960D03*
X010303Y009440D03*
X010293Y009450D03*
X010283Y009460D03*
X010253Y009730D03*
X010243Y009740D03*
X010233Y009750D03*
X010223Y009760D03*
X010213Y009770D03*
X010203Y009780D03*
X010193Y009790D03*
X010153Y010430D03*
X010163Y010440D03*
X010173Y010450D03*
X010373Y010910D03*
D72*
X010188Y010460D03*
X009958Y010010D03*
X010098Y009880D03*
X010108Y009870D03*
X010118Y009860D03*
X010128Y009850D03*
X010138Y009840D03*
X010148Y009830D03*
X010158Y009820D03*
X010168Y009810D03*
X010178Y009800D03*
X010318Y009430D03*
X010328Y009420D03*
X010338Y009410D03*
X010348Y009400D03*
X011138Y008970D03*
X012298Y009410D03*
X012308Y009420D03*
X012318Y009430D03*
X012328Y009440D03*
X012498Y009840D03*
X012508Y009850D03*
X012518Y009860D03*
X012528Y009870D03*
X012538Y009880D03*
X012548Y009890D03*
X012428Y010470D03*
D73*
X012413Y010480D03*
X012333Y010550D03*
X012583Y009920D03*
X012573Y009910D03*
X012563Y009900D03*
X012283Y009400D03*
X012273Y009390D03*
X012263Y009380D03*
X012233Y009360D03*
X011743Y009870D03*
X011743Y010240D03*
X010893Y009870D03*
X010383Y009370D03*
X010373Y009380D03*
X010363Y009390D03*
X010083Y009890D03*
X010073Y009900D03*
X010063Y009910D03*
X009963Y010000D03*
X010203Y010470D03*
X010303Y010550D03*
X010363Y010900D03*
X010923Y011770D03*
X011313Y011460D03*
X011473Y011550D03*
X011493Y008970D03*
D74*
X012338Y008990D03*
X011318Y010290D03*
X010658Y010460D03*
X010968Y011590D03*
X011318Y012250D03*
X011738Y011420D03*
X012208Y010770D03*
X011978Y010460D03*
X012348Y011750D03*
X010298Y011760D03*
X009698Y009560D03*
X009698Y009550D03*
X010308Y008980D03*
D75*
X010428Y009340D03*
X010398Y009360D03*
X010468Y009520D03*
X010048Y009920D03*
X010038Y009930D03*
X010008Y009950D03*
X009998Y009960D03*
X009988Y009970D03*
X009978Y009980D03*
X009968Y009990D03*
X010218Y010480D03*
X010888Y010240D03*
X011118Y008980D03*
X012218Y009350D03*
X012248Y009370D03*
X012598Y009930D03*
X012608Y009940D03*
X012618Y009950D03*
X012668Y010000D03*
X012398Y010490D03*
X012308Y010880D03*
X012298Y010890D03*
X011688Y011730D03*
D76*
X012313Y010870D03*
X012383Y010500D03*
X012663Y009990D03*
X012653Y009980D03*
X012643Y009970D03*
X012633Y009960D03*
X012163Y009520D03*
X012203Y009340D03*
X012193Y009330D03*
X012173Y009320D03*
X012163Y009310D03*
X011513Y008980D03*
X010503Y009950D03*
X010493Y009990D03*
X010483Y010000D03*
X010023Y009940D03*
X010233Y010490D03*
X010253Y010500D03*
X010413Y009350D03*
X010443Y009330D03*
X010453Y009320D03*
X010483Y009300D03*
D77*
X010283Y009000D03*
X010293Y008990D03*
X009693Y009570D03*
X009693Y009580D03*
X010893Y011410D03*
X010963Y011600D03*
X010283Y011750D03*
X010273Y011740D03*
X010253Y011730D03*
X011663Y011560D03*
X012363Y011740D03*
X012373Y011730D03*
X012353Y009000D03*
D78*
X012138Y009290D03*
X012148Y009300D03*
X012118Y009280D03*
X012108Y009270D03*
X011738Y009880D03*
X012128Y009970D03*
X012138Y009990D03*
X012138Y010000D03*
X011348Y010940D03*
X010888Y010230D03*
X010508Y009940D03*
X010508Y009930D03*
X010518Y009920D03*
X010518Y009910D03*
X010498Y009960D03*
X010498Y009970D03*
X010498Y009980D03*
X010888Y009880D03*
X010498Y009290D03*
X010508Y009280D03*
X010528Y009270D03*
X010558Y009250D03*
X010468Y009310D03*
X011098Y008990D03*
X010338Y010880D03*
X010348Y010890D03*
X010918Y011760D03*
X011688Y011720D03*
D79*
X012323Y010860D03*
X012123Y010500D03*
X011743Y010230D03*
X012133Y009980D03*
X012123Y009960D03*
X012123Y009950D03*
X012113Y009940D03*
X012113Y009930D03*
X012093Y009260D03*
X012073Y009250D03*
X012053Y009240D03*
X011533Y008990D03*
X010593Y009230D03*
X010573Y009240D03*
X010543Y009260D03*
X010533Y009880D03*
X010533Y009890D03*
X010523Y009900D03*
X010473Y010090D03*
X010473Y010100D03*
X010473Y010110D03*
X010333Y010870D03*
D80*
X010318Y010540D03*
X010508Y010500D03*
X010478Y010130D03*
X010478Y010120D03*
X010538Y009870D03*
X010548Y009860D03*
X010608Y009220D03*
X010628Y009210D03*
X010648Y009200D03*
X011078Y009000D03*
X012008Y009210D03*
X012018Y009220D03*
X012038Y009230D03*
X012148Y010100D03*
X012318Y010540D03*
D81*
X012323Y010850D03*
X012143Y010120D03*
X012143Y010110D03*
X012103Y009920D03*
X012093Y009900D03*
X011743Y009890D03*
X011743Y010220D03*
X011983Y009200D03*
X011963Y009190D03*
X011553Y009000D03*
X010443Y009530D03*
X010483Y010140D03*
X010483Y010150D03*
X010333Y010860D03*
X010923Y011750D03*
X011313Y011470D03*
X011683Y011710D03*
D82*
X011738Y011430D03*
X012388Y011720D03*
X010888Y011420D03*
X010238Y011720D03*
X010418Y010790D03*
X011318Y009830D03*
X010268Y009010D03*
X009688Y009590D03*
X012368Y009010D03*
X012378Y009020D03*
D83*
X011923Y009170D03*
X012073Y009870D03*
X012083Y009880D03*
X012143Y010140D03*
X011313Y010100D03*
X010573Y009830D03*
X010563Y009840D03*
X010493Y010170D03*
X010493Y010180D03*
X010693Y009180D03*
X010713Y009170D03*
X010723Y009160D03*
X011053Y009010D03*
X011683Y011700D03*
D84*
X010888Y010220D03*
X010888Y009890D03*
X010558Y009850D03*
X010488Y010160D03*
X010668Y009190D03*
X011578Y009010D03*
X011948Y009180D03*
X012088Y009890D03*
X012098Y009910D03*
X012138Y010130D03*
D85*
X012223Y010780D03*
X011663Y011570D03*
X010963Y011610D03*
X010223Y011710D03*
X010213Y011700D03*
X011313Y010280D03*
X010243Y009030D03*
X010253Y009020D03*
X009683Y009600D03*
X009683Y009610D03*
X012393Y009030D03*
X012403Y011710D03*
D86*
X012318Y010840D03*
X012138Y010180D03*
X012138Y010170D03*
X012138Y010160D03*
X012138Y010150D03*
X012068Y009860D03*
X011908Y009160D03*
X011598Y009020D03*
X011038Y009020D03*
X010748Y009150D03*
X010888Y009900D03*
X010888Y010210D03*
X010498Y010190D03*
X011318Y010130D03*
X011318Y010120D03*
X010928Y011740D03*
D87*
X010928Y011730D03*
X011308Y011480D03*
X010538Y010490D03*
X010498Y010210D03*
X010328Y010530D03*
X010888Y010200D03*
X010598Y009810D03*
X010798Y009130D03*
X010818Y009120D03*
X011018Y009030D03*
X011838Y009130D03*
X011308Y009970D03*
X011308Y009980D03*
X011318Y010140D03*
X012128Y010200D03*
D88*
X012133Y010190D03*
X012093Y010490D03*
X012303Y010530D03*
X011743Y010210D03*
X011743Y009900D03*
X012053Y009840D03*
X012063Y009850D03*
X011883Y009150D03*
X011863Y009140D03*
X011613Y009030D03*
X010773Y009140D03*
X010583Y009820D03*
X010503Y010200D03*
X010333Y010850D03*
X011313Y010110D03*
X011313Y009990D03*
X011683Y011690D03*
D89*
X011668Y011580D03*
X011748Y011440D03*
X012418Y011700D03*
X012428Y011690D03*
X011308Y010270D03*
X011318Y009840D03*
X010228Y009040D03*
X009678Y009620D03*
X010878Y011430D03*
X010198Y011690D03*
X012418Y009050D03*
X012408Y009040D03*
D90*
X012433Y009060D03*
X012443Y009070D03*
X011313Y010260D03*
X011343Y010950D03*
X011303Y011540D03*
X010953Y011620D03*
X010403Y010800D03*
X010193Y011680D03*
X009673Y009650D03*
X009673Y009640D03*
X009673Y009630D03*
X010203Y009060D03*
X010213Y009050D03*
X012463Y011660D03*
X012453Y011670D03*
X012443Y011680D03*
D91*
X012978Y010870D03*
X012988Y010840D03*
X012988Y010830D03*
X012998Y010810D03*
X012998Y010800D03*
X012998Y010790D03*
X013008Y010770D03*
X013008Y010760D03*
X013008Y010750D03*
X013008Y010740D03*
X013018Y010730D03*
X013018Y010720D03*
X013018Y010710D03*
X013018Y010700D03*
X013028Y010670D03*
X013028Y010660D03*
X013028Y010650D03*
X013038Y010600D03*
X013038Y010590D03*
X013038Y010580D03*
X013038Y010570D03*
X013038Y010560D03*
X013048Y010490D03*
X013048Y010480D03*
X013048Y010470D03*
X013048Y010460D03*
X013048Y010450D03*
X013048Y010440D03*
X013048Y010430D03*
X013048Y010420D03*
X013048Y010410D03*
X013048Y010400D03*
X013048Y010390D03*
X013048Y010380D03*
X013048Y010370D03*
X013048Y010360D03*
X013048Y010350D03*
X013048Y010340D03*
X013048Y010330D03*
X013048Y010320D03*
X013048Y010310D03*
X013048Y010300D03*
X013048Y010290D03*
X013048Y010280D03*
X013048Y010270D03*
X013048Y010260D03*
X013038Y010190D03*
X013038Y010180D03*
X013038Y010170D03*
X013038Y010160D03*
X013038Y010150D03*
X013028Y010090D03*
X013028Y010080D03*
X013018Y010040D03*
X013018Y010030D03*
X013018Y010020D03*
X013008Y010010D03*
X013008Y010000D03*
X013008Y009990D03*
X013008Y009980D03*
X012998Y009960D03*
X012998Y009950D03*
X012998Y009940D03*
X012998Y009930D03*
X012988Y009920D03*
X012988Y009910D03*
X012978Y009880D03*
X012118Y010230D03*
X012028Y009810D03*
X011788Y009110D03*
X011648Y009050D03*
X010848Y009110D03*
X011308Y009950D03*
X011318Y010160D03*
X011318Y010170D03*
X010888Y010190D03*
X010518Y010250D03*
X010508Y010240D03*
X009588Y010240D03*
X009588Y010250D03*
X009588Y010260D03*
X009588Y010270D03*
X009588Y010230D03*
X009588Y010220D03*
X009588Y010210D03*
X009588Y010200D03*
X009588Y010190D03*
X009588Y010180D03*
X009588Y010170D03*
X009588Y010480D03*
X009588Y010490D03*
X009588Y010500D03*
X009588Y010510D03*
X009588Y010520D03*
X009588Y010530D03*
X009588Y010540D03*
X009588Y010550D03*
X009588Y010560D03*
X009588Y010570D03*
X009598Y010580D03*
X009598Y010590D03*
X009598Y010600D03*
X009598Y010610D03*
X009598Y010620D03*
X009598Y010630D03*
X009608Y010650D03*
X009608Y010660D03*
X009608Y010670D03*
X009608Y010680D03*
X009608Y010690D03*
X009618Y010720D03*
X009618Y010730D03*
X009618Y010740D03*
X009618Y010750D03*
X009628Y010760D03*
X009628Y010770D03*
X009628Y010780D03*
X009628Y010790D03*
X009638Y010800D03*
X009638Y010810D03*
X009638Y010820D03*
X009638Y010830D03*
X009648Y010840D03*
X009648Y010850D03*
X009658Y010880D03*
X010928Y011720D03*
D92*
X010938Y011710D03*
X011308Y011490D03*
X011688Y011660D03*
X012108Y010260D03*
X011318Y010190D03*
X011318Y009270D03*
X010968Y009060D03*
X010948Y009070D03*
X011668Y009060D03*
X011758Y009100D03*
X012898Y009660D03*
X012908Y009690D03*
X012918Y009710D03*
X012918Y009720D03*
X012928Y009730D03*
X012928Y009740D03*
X012938Y009750D03*
X012938Y009760D03*
X012948Y009780D03*
X012948Y009790D03*
X012958Y009810D03*
X012958Y009820D03*
X012968Y009840D03*
X012968Y010910D03*
X012958Y010930D03*
X012948Y010960D03*
X012948Y010970D03*
X012938Y010990D03*
X012938Y011000D03*
X012928Y011010D03*
X012928Y011020D03*
X012918Y011030D03*
X012918Y011040D03*
X012908Y011060D03*
X012888Y011110D03*
X009738Y011090D03*
X009728Y011070D03*
X009728Y011060D03*
X009718Y011050D03*
X009718Y011040D03*
X009708Y011030D03*
X009708Y011020D03*
X009698Y011000D03*
X009688Y010970D03*
X009678Y010950D03*
X009598Y010100D03*
X009598Y010090D03*
X009598Y010080D03*
X009598Y010070D03*
X009598Y010060D03*
X009598Y010050D03*
X009598Y010040D03*
D93*
X009668Y009670D03*
X009668Y009660D03*
X010178Y009080D03*
X010188Y009070D03*
X011318Y009290D03*
X011318Y009850D03*
X012458Y009080D03*
X012468Y009090D03*
X011748Y011450D03*
X011668Y011590D03*
X010878Y011440D03*
X010178Y011670D03*
X010168Y011660D03*
X010158Y011650D03*
X012478Y011650D03*
X012488Y011640D03*
D94*
X012863Y011160D03*
X012863Y011150D03*
X012873Y011140D03*
X012873Y011130D03*
X012883Y011120D03*
X012893Y011100D03*
X012893Y011090D03*
X012903Y011080D03*
X012903Y011070D03*
X012913Y011050D03*
X012293Y010820D03*
X011763Y011540D03*
X011763Y011550D03*
X010933Y011700D03*
X010853Y011540D03*
X009783Y011180D03*
X009773Y011160D03*
X009763Y011150D03*
X009763Y011140D03*
X009753Y011130D03*
X009753Y011120D03*
X009743Y011110D03*
X009743Y011100D03*
X009733Y011080D03*
X010533Y010270D03*
X011313Y010200D03*
X011313Y009930D03*
X011313Y009920D03*
X010903Y009090D03*
X011683Y009070D03*
X012863Y009590D03*
X012873Y009610D03*
X012883Y009620D03*
X012883Y009630D03*
X012893Y009640D03*
X012893Y009650D03*
X012903Y009670D03*
X012903Y009680D03*
X012913Y009700D03*
X009603Y010000D03*
X009603Y010010D03*
X009603Y010020D03*
X009603Y010030D03*
D95*
X009608Y009990D03*
X009608Y009980D03*
X009608Y009970D03*
X009608Y009960D03*
X010348Y010520D03*
X010538Y010280D03*
X010638Y009790D03*
X010928Y009080D03*
X011698Y009080D03*
X011728Y009090D03*
X012098Y010270D03*
X012058Y010480D03*
X012288Y010520D03*
X012858Y011170D03*
X012848Y011180D03*
X012848Y011190D03*
X012838Y011200D03*
X012828Y011210D03*
X012828Y011220D03*
X012818Y011230D03*
X012818Y011240D03*
X012808Y011250D03*
X011688Y011650D03*
X012868Y009600D03*
X012858Y009580D03*
X012848Y009570D03*
X012848Y009560D03*
X012838Y009550D03*
X012838Y009540D03*
X012828Y009530D03*
X012818Y009510D03*
X012808Y009490D03*
X009808Y011220D03*
X009808Y011230D03*
X009818Y011240D03*
X009798Y011210D03*
X009798Y011200D03*
X009788Y011190D03*
X009778Y011170D03*
D96*
X010123Y011620D03*
X010133Y011630D03*
X010143Y011640D03*
X010873Y011450D03*
X010953Y011630D03*
X011303Y011530D03*
X011753Y011460D03*
X012493Y011630D03*
X012503Y009120D03*
X012493Y009110D03*
X012483Y009100D03*
X010163Y009090D03*
X010153Y009100D03*
X010143Y009110D03*
X009663Y009680D03*
X009663Y009690D03*
D97*
X009658Y009700D03*
X009658Y009710D03*
X010108Y009140D03*
X010118Y009130D03*
X010128Y009120D03*
X010868Y011460D03*
X010948Y011640D03*
X011678Y011600D03*
X012248Y010790D03*
X012518Y011610D03*
X012508Y011620D03*
X010108Y011610D03*
X010098Y011600D03*
X010088Y011590D03*
D98*
X010083Y011580D03*
X010393Y010810D03*
X011313Y010250D03*
X011323Y009860D03*
X012043Y010320D03*
X011753Y011470D03*
X012533Y011600D03*
X012543Y011590D03*
X012553Y011580D03*
X012563Y011570D03*
X012533Y009150D03*
X012523Y009140D03*
X012513Y009130D03*
X010093Y009150D03*
X009653Y009720D03*
X009653Y009730D03*
D99*
X009648Y009740D03*
X009648Y009750D03*
X010048Y009200D03*
X010058Y009190D03*
X010068Y009180D03*
X010078Y009170D03*
X010088Y009160D03*
X010608Y010470D03*
X010868Y011470D03*
X010948Y011650D03*
X011308Y011520D03*
X011678Y011610D03*
X011758Y011480D03*
X012568Y011560D03*
X012578Y011550D03*
X012588Y011540D03*
X012598Y011530D03*
X012028Y010470D03*
X012058Y010310D03*
X012578Y009190D03*
X012568Y009180D03*
X012558Y009170D03*
X012548Y009160D03*
X010068Y011570D03*
X010058Y011560D03*
X010048Y011550D03*
D100*
X010043Y011540D03*
X010033Y011530D03*
X010023Y011520D03*
X010013Y011510D03*
X010863Y011480D03*
X011753Y011490D03*
X012263Y010800D03*
X011313Y010240D03*
X010573Y010320D03*
X010343Y009540D03*
X010033Y009220D03*
X010043Y009210D03*
X009643Y009760D03*
X009643Y009770D03*
X009643Y009780D03*
X012283Y009530D03*
X012293Y009540D03*
X012303Y009550D03*
X012593Y009210D03*
X012583Y009200D03*
X012603Y009220D03*
D101*
X012618Y009230D03*
X012308Y009560D03*
X012268Y010510D03*
X012638Y011490D03*
X012628Y011500D03*
X012618Y011510D03*
X012608Y011520D03*
X011758Y011500D03*
X011678Y011620D03*
X010948Y011660D03*
X010008Y011500D03*
X009998Y011490D03*
X009988Y011480D03*
X009978Y011470D03*
X010368Y010510D03*
X010318Y009560D03*
X010328Y009550D03*
X010018Y009230D03*
X010008Y009240D03*
X009638Y009790D03*
X009638Y009800D03*
X011318Y009870D03*
D102*
X011318Y009880D03*
X011318Y009280D03*
X012078Y010300D03*
X012348Y009600D03*
X012678Y009310D03*
X012688Y009320D03*
X012698Y009330D03*
X012668Y009290D03*
X012658Y009280D03*
X012708Y011400D03*
X012698Y011410D03*
X012678Y011440D03*
X011758Y011510D03*
X010858Y011500D03*
X009948Y011430D03*
X009938Y011420D03*
X009918Y011390D03*
X009908Y011380D03*
X010558Y010310D03*
X010268Y009610D03*
X010278Y009600D03*
X010288Y009590D03*
X009628Y009840D03*
X009628Y009850D03*
X009628Y009860D03*
D103*
X009798Y009300D03*
X010568Y011900D03*
D104*
X010923Y011370D03*
X012163Y010750D03*
X011323Y009800D03*
X011313Y009310D03*
X009743Y009420D03*
D105*
X009788Y009320D03*
X012108Y010730D03*
X012088Y011890D03*
D106*
X012123Y011880D03*
X011683Y011360D03*
X010953Y011360D03*
X010513Y011880D03*
X010513Y010750D03*
X009773Y009350D03*
X011313Y009320D03*
D107*
X011313Y009890D03*
X010553Y010300D03*
X010263Y009620D03*
X009623Y009870D03*
X009623Y009880D03*
X009893Y011360D03*
X009903Y011370D03*
X009923Y011400D03*
X009933Y011410D03*
X012083Y010290D03*
X012373Y009620D03*
X012363Y009610D03*
X012703Y009340D03*
X012713Y009350D03*
X012723Y009360D03*
X012733Y009380D03*
X012743Y009390D03*
X012763Y009420D03*
X012733Y011370D03*
X012723Y011380D03*
X012713Y011390D03*
D108*
X011338Y010970D03*
X011318Y009350D03*
D109*
X011318Y009360D03*
X011318Y010520D03*
X012028Y010710D03*
X011968Y011930D03*
D110*
X011688Y011640D03*
X011758Y011520D03*
X011308Y011500D03*
X010938Y011680D03*
X010858Y011520D03*
X010858Y011510D03*
X009888Y011350D03*
X009878Y011340D03*
X009868Y011330D03*
X009868Y011320D03*
X009858Y011310D03*
X009848Y011290D03*
X010548Y010290D03*
X011308Y010220D03*
X012088Y010280D03*
X012278Y010810D03*
X012788Y011290D03*
X012768Y011320D03*
X012758Y011330D03*
X012758Y011340D03*
X012748Y011350D03*
X012738Y011360D03*
X012798Y009470D03*
X012788Y009460D03*
X012778Y009440D03*
X012768Y009430D03*
X012758Y009410D03*
X012748Y009400D03*
X012728Y009370D03*
X009618Y009890D03*
X009618Y009900D03*
X009618Y009910D03*
D111*
X009753Y009400D03*
X009753Y009390D03*
X010453Y011850D03*
X011313Y012240D03*
D112*
X011328Y010990D03*
X011318Y009390D03*
D113*
X011318Y009400D03*
X011318Y012200D03*
D114*
X011313Y009410D03*
D115*
X011318Y009420D03*
D116*
X011318Y009440D03*
D117*
X011313Y009900D03*
X011313Y009910D03*
X011313Y010210D03*
X010573Y010480D03*
X010363Y010830D03*
X009833Y011260D03*
X009833Y011270D03*
X009843Y011280D03*
X009853Y011300D03*
X009823Y011250D03*
X010853Y011530D03*
X010933Y011690D03*
X011763Y011530D03*
X012773Y011310D03*
X012783Y011300D03*
X012793Y011280D03*
X012803Y011270D03*
X012803Y011260D03*
X012823Y009520D03*
X012813Y009500D03*
X012803Y009480D03*
X012783Y009450D03*
X009613Y009920D03*
X009613Y009930D03*
X009613Y009940D03*
X009613Y009950D03*
D118*
X011318Y009460D03*
D119*
X010888Y010250D03*
X010308Y009680D03*
X010298Y009690D03*
X010288Y009700D03*
X010278Y009710D03*
X010268Y009720D03*
X010238Y009500D03*
X010248Y009490D03*
X010258Y009480D03*
X010268Y009470D03*
X009958Y010020D03*
X010108Y010380D03*
X010118Y010390D03*
X010128Y010400D03*
X010138Y010410D03*
X010148Y010420D03*
X012308Y009670D03*
X012318Y009680D03*
X012328Y009690D03*
X012388Y009740D03*
X012398Y009750D03*
X012408Y009510D03*
X012398Y009500D03*
X012388Y009490D03*
X012378Y009480D03*
X012678Y010020D03*
X012498Y010410D03*
X012488Y010420D03*
D120*
X011318Y009480D03*
D121*
X011318Y009490D03*
X011318Y012160D03*
D122*
X010923Y011780D03*
X010383Y010920D03*
X009953Y010030D03*
X010323Y009670D03*
X010333Y009660D03*
X010353Y009650D03*
X010363Y009640D03*
X010373Y009630D03*
X010223Y009510D03*
X010213Y009520D03*
X010213Y009530D03*
X010973Y009920D03*
X011653Y009920D03*
X011833Y009920D03*
X011743Y010250D03*
X012293Y009660D03*
X012283Y009650D03*
X012273Y009640D03*
X012263Y009630D03*
X012413Y009520D03*
X012683Y010030D03*
X012543Y010360D03*
X012513Y010400D03*
X012273Y010910D03*
D123*
X011318Y009510D03*
D124*
X011318Y009520D03*
X011318Y010550D03*
X011318Y012150D03*
D125*
X011318Y009530D03*
D126*
X011318Y009540D03*
D127*
X011318Y009550D03*
D128*
X011318Y009570D03*
D129*
X011318Y009590D03*
X011318Y010560D03*
X011308Y011060D03*
D130*
X011323Y011280D03*
X011323Y011290D03*
X011323Y011300D03*
X011323Y011310D03*
X011313Y009600D03*
D131*
X011318Y009620D03*
X011328Y011250D03*
D132*
X012558Y009630D03*
X010078Y009630D03*
D133*
X011313Y009640D03*
X011323Y011200D03*
D134*
X011328Y011190D03*
X011328Y011180D03*
X011318Y009650D03*
D135*
X011318Y009670D03*
X011318Y011090D03*
X011328Y011100D03*
X011328Y011110D03*
X011328Y011120D03*
D136*
X011313Y009680D03*
D137*
X011318Y009690D03*
X011318Y012090D03*
D138*
X011313Y009710D03*
D139*
X011313Y009720D03*
D140*
X011313Y009740D03*
D141*
X011318Y009750D03*
X011318Y012070D03*
D142*
X011313Y009760D03*
D143*
X011313Y009780D03*
D144*
X011568Y009790D03*
D145*
X011743Y009850D03*
X010883Y009850D03*
X010573Y010080D03*
D146*
X010778Y010180D03*
X010898Y010060D03*
X010888Y010050D03*
X010888Y010040D03*
X010888Y010030D03*
X010778Y009930D03*
X010888Y009860D03*
X011628Y010180D03*
X011848Y010180D03*
X011858Y009930D03*
X012628Y010230D03*
X012638Y010210D03*
X012648Y010190D03*
X012648Y010180D03*
X012658Y010160D03*
X012658Y010150D03*
X012668Y010140D03*
X012668Y010130D03*
X012668Y010120D03*
X012678Y010110D03*
X012678Y010100D03*
X012688Y010080D03*
X012688Y010070D03*
X012688Y010060D03*
X012688Y010050D03*
X012248Y010930D03*
X010008Y010230D03*
X009998Y010220D03*
X009998Y010210D03*
X009988Y010200D03*
X009988Y010190D03*
X009978Y010170D03*
X009978Y010160D03*
X009968Y010150D03*
X009968Y010140D03*
X009958Y010120D03*
X009958Y010110D03*
X009948Y010090D03*
X009948Y010080D03*
X009948Y010060D03*
D147*
X010293Y010570D03*
X010733Y010140D03*
X010733Y010130D03*
X010743Y010150D03*
X010753Y010160D03*
X010893Y010090D03*
X011033Y010150D03*
X011043Y010140D03*
X011053Y010120D03*
X011053Y009990D03*
X011043Y009980D03*
X011043Y009970D03*
X011033Y009960D03*
X010733Y009980D03*
X011573Y010100D03*
X011583Y010130D03*
X011593Y010140D03*
X011743Y010090D03*
X011743Y010020D03*
X011883Y009960D03*
X011893Y009970D03*
X011903Y009990D03*
X011903Y010130D03*
X011893Y010140D03*
X011593Y009970D03*
X011583Y009980D03*
X012233Y010940D03*
D148*
X012203Y010960D03*
X012353Y010580D03*
X012253Y010090D03*
X011263Y010000D03*
D149*
X011318Y010000D03*
X010458Y010970D03*
X012248Y010010D03*
D150*
X010898Y010100D03*
D151*
X010883Y010260D03*
X010283Y010580D03*
X011743Y010260D03*
X011743Y010110D03*
D152*
X011603Y010330D03*
X011313Y011040D03*
D153*
X011313Y010360D03*
X011313Y010350D03*
X011313Y010340D03*
X011313Y012010D03*
D154*
X011318Y010400D03*
X011318Y010390D03*
X011318Y010380D03*
X011318Y010370D03*
D155*
X011313Y010410D03*
D156*
X011313Y010440D03*
D157*
X011318Y010530D03*
D158*
X011318Y010540D03*
D159*
X011323Y010570D03*
D160*
X011318Y010590D03*
D161*
X011318Y010600D03*
X011318Y012040D03*
D162*
X011318Y010610D03*
D163*
X011323Y010620D03*
D164*
X011318Y010660D03*
D165*
X011318Y010670D03*
D166*
X011318Y010680D03*
D167*
X011318Y010690D03*
D168*
X011323Y011000D03*
X010743Y010700D03*
X011313Y012190D03*
D169*
X011943Y010700D03*
D170*
X010653Y010710D03*
X011313Y012210D03*
D171*
X012063Y010720D03*
D172*
X010568Y010730D03*
D173*
X011318Y011010D03*
D174*
X011313Y011030D03*
D175*
X011313Y011080D03*
X011323Y011160D03*
X011323Y011170D03*
D176*
X011323Y011230D03*
X011323Y011240D03*
D177*
X011323Y011320D03*
X011323Y011330D03*
D178*
X011323Y011350D03*
X011313Y012130D03*
D179*
X010633Y011920D03*
X012003Y011920D03*
D180*
X011918Y011940D03*
X010708Y011940D03*
D181*
X011318Y011950D03*
D182*
X011313Y011960D03*
D183*
X011313Y011980D03*
D184*
X011318Y012030D03*
D185*
X011313Y012050D03*
D186*
X011313Y012060D03*
D187*
X011318Y012080D03*
D188*
X011318Y012120D03*
D189*
X011313Y012140D03*
D190*
X009462Y004050D02*
X009438Y004050D01*
D191*
X009755Y003510D02*
X010025Y003510D01*
X010025Y003420D02*
X010025Y003600D01*
X009845Y003420D02*
X009755Y003510D01*
X009800Y003305D02*
X009755Y003260D01*
X009755Y003170D01*
X009800Y003125D01*
X009980Y003125D01*
X010025Y003170D01*
X010025Y003260D01*
X009980Y003305D01*
X010975Y003420D02*
X011245Y003420D01*
X011245Y003330D02*
X011245Y003511D01*
X011065Y003330D02*
X010975Y003420D01*
X011020Y003216D02*
X011110Y003216D01*
X011155Y003171D01*
X011155Y003036D01*
X011155Y003126D02*
X011245Y003216D01*
X011245Y003036D02*
X010975Y003036D01*
X010975Y003171D01*
X011020Y003216D01*
X013135Y003230D02*
X013405Y003230D01*
X013360Y002980D02*
X013135Y002980D01*
X013135Y002935D02*
X013135Y003025D01*
X013135Y003140D02*
X013135Y003320D01*
X013225Y003434D02*
X013135Y003524D01*
X013225Y003614D01*
X013405Y003614D01*
X013360Y003729D02*
X013180Y003729D01*
X013135Y003774D01*
X013135Y003864D01*
X013180Y003909D01*
X013270Y003909D02*
X013270Y003819D01*
X013270Y003909D02*
X013360Y003909D01*
X013405Y003864D01*
X013405Y003774D01*
X013360Y003729D01*
X013270Y003614D02*
X013270Y003434D01*
X013225Y003434D02*
X013405Y003434D01*
X013360Y002980D02*
X013405Y002935D01*
X013405Y002890D01*
X013360Y002845D01*
X013405Y004024D02*
X013405Y004204D01*
X013405Y004114D02*
X013135Y004114D01*
X013225Y004024D01*
X008387Y007173D02*
X008207Y007173D01*
X008387Y007354D01*
X008387Y007399D01*
X008342Y007444D01*
X008252Y007444D01*
X008207Y007399D01*
X008092Y007399D02*
X008047Y007444D01*
X007957Y007444D01*
X007912Y007399D01*
X007912Y007218D01*
X007957Y007173D01*
X008047Y007173D01*
X008092Y007218D01*
X008092Y007309D01*
X008002Y007309D01*
X007798Y007309D02*
X007617Y007309D01*
X007617Y007354D02*
X007708Y007444D01*
X007798Y007354D01*
X007798Y007173D01*
X007617Y007173D02*
X007617Y007354D01*
X007503Y007444D02*
X007323Y007444D01*
X007413Y007444D02*
X007413Y007173D01*
X007163Y007218D02*
X007163Y007444D01*
X007118Y007444D02*
X007208Y007444D01*
X007163Y007218D02*
X007118Y007173D01*
X007073Y007173D01*
X007028Y007218D01*
X003922Y007264D02*
X003528Y007264D01*
X003528Y009036D01*
X003922Y009036D01*
X007837Y003186D02*
X008133Y002891D01*
X007542Y002891D01*
X007837Y003186D01*
X007808Y003157D02*
X007867Y003157D01*
X007915Y003109D02*
X007760Y003109D01*
X007711Y003060D02*
X007964Y003060D01*
X008012Y003012D02*
X007663Y003012D01*
X007614Y002963D02*
X008061Y002963D01*
X008109Y002915D02*
X007566Y002915D01*
X003189Y014915D02*
X003099Y014915D01*
X003054Y014960D01*
X002939Y014960D02*
X002939Y015050D01*
X002849Y015050D01*
X002759Y014960D02*
X002804Y014915D01*
X002894Y014915D01*
X002939Y014960D01*
X002759Y014960D02*
X002759Y015140D01*
X002804Y015185D01*
X002894Y015185D01*
X002939Y015140D01*
X003054Y015140D02*
X003099Y015185D01*
X003189Y015185D01*
X003234Y015140D01*
X003234Y015095D01*
X003189Y015050D01*
X003234Y015005D01*
X003234Y014960D01*
X003189Y014915D01*
X003189Y015050D02*
X003144Y015050D01*
X002644Y015050D02*
X002464Y015050D01*
X002464Y015095D02*
X002464Y014915D01*
X002464Y015095D02*
X002554Y015185D01*
X002644Y015095D01*
X002644Y014915D01*
X002260Y014915D02*
X002260Y015185D01*
X002170Y015185D02*
X002350Y015185D01*
X002055Y015185D02*
X001965Y015185D01*
X002010Y015185D02*
X002010Y014960D01*
X001965Y014915D01*
X001920Y014915D01*
X001875Y014960D01*
D192*
X010650Y004050D03*
D193*
X002855Y003085D02*
X002855Y002745D01*
X002855Y002915D02*
X002345Y002915D01*
X002515Y002745D01*
D194*
X004750Y002250D02*
X004750Y001250D01*
X006750Y001250D01*
X006750Y002250D01*
X004750Y002250D01*
X004290Y007190D02*
X004360Y007260D01*
X004360Y007330D01*
X004290Y007400D01*
X003940Y007400D01*
X003940Y007330D02*
X003940Y007470D01*
X003940Y007650D02*
X003940Y007931D01*
X003940Y007791D02*
X004360Y007791D01*
X004360Y008111D02*
X004080Y008111D01*
X003940Y008251D01*
X004080Y008391D01*
X004360Y008391D01*
X004290Y008571D02*
X004360Y008641D01*
X004360Y008781D01*
X004290Y008851D01*
X004150Y008851D01*
X004150Y008711D01*
X004010Y008571D02*
X004290Y008571D01*
X004150Y008391D02*
X004150Y008111D01*
X004010Y008571D02*
X003940Y008641D01*
X003940Y008781D01*
X004010Y008851D01*
X005450Y009250D02*
X005450Y008250D01*
X008450Y008250D01*
X008450Y009250D01*
X005450Y009250D01*
X005450Y009450D02*
X005450Y010450D01*
X007450Y010450D01*
X007450Y009450D01*
X005450Y009450D01*
X011950Y008200D02*
X011950Y007700D01*
X012200Y007450D01*
X011950Y007200D01*
X011950Y006700D01*
X012200Y006450D01*
X011950Y006200D01*
X011950Y005700D01*
X012200Y005450D01*
X011950Y005200D01*
X011950Y004700D01*
X012200Y004450D01*
X011950Y004200D01*
X011950Y003700D01*
X012200Y003450D01*
X011950Y003200D01*
X011950Y002700D01*
X012200Y002450D01*
X012700Y002450D01*
X012950Y002700D01*
X012950Y003200D01*
X012700Y003450D01*
X012950Y003700D01*
X012950Y004200D01*
X012700Y004450D01*
X012950Y004700D01*
X012950Y005200D01*
X012700Y005450D01*
X012950Y005700D01*
X012950Y006200D01*
X012700Y006450D01*
X012950Y006700D01*
X012950Y007200D01*
X012700Y007450D01*
X012950Y007700D01*
X012950Y008200D01*
X012700Y008450D01*
X012200Y008450D01*
X011950Y008200D01*
D195*
X003190Y003650D03*
D196*
X003115Y003725D03*
X003115Y003575D03*
D197*
X003270Y003650D03*
D198*
X005070Y002538D02*
X005167Y002635D01*
X005167Y002345D01*
X005070Y002345D02*
X005264Y002345D01*
X006070Y002345D02*
X006264Y002538D01*
X006264Y002587D01*
X006215Y002635D01*
X006119Y002635D01*
X006070Y002587D01*
X006070Y002345D02*
X006264Y002345D01*
X005964Y010545D02*
X005770Y010545D01*
X005867Y010545D02*
X005867Y010835D01*
X005770Y010738D01*
X006770Y010787D02*
X006819Y010835D01*
X006915Y010835D01*
X006964Y010787D01*
X006964Y010738D01*
X006770Y010545D01*
X006964Y010545D01*
M02*
