%
M48
M72
T01C0.0140
T02C0.0394
T03C0.0400
%
T01
X3250Y5950
X5450Y5950
X5450Y5450
X5450Y4950
X5450Y4450
X5450Y3950
X10650Y5950
T02
X1650Y3650
X1650Y4650
X1650Y5650
X1650Y6650
X1650Y7650
X1650Y8650
X1650Y9650
X1650Y10650
X1650Y11650
X1650Y12650
X2650Y12650
X2650Y11650
X2650Y10650
X2650Y9650
X2650Y8650
X2650Y7650
X2650Y6650
X2650Y5650
X2650Y4650
X2650Y3650
X5250Y1750
X6250Y1750
X5950Y8750
X6950Y8750
X7950Y8750
X6950Y9950
X5950Y9950
T03
X12450Y7950
X12450Y6950
X12450Y5950
X12450Y4950
X12450Y3950
X12450Y2950
M30
