G75*
G70*
%OFA0B0*%
%FSLAX24Y24*%
%IPPOS*%
%LPD*%
%AMOC8*
5,1,8,0,0,1.08239X$1,22.5*
%
%ADD10C,0.0500*%
%ADD11C,0.0671*%
%ADD12R,0.0474X0.0513*%
%ADD13C,0.0714*%
%ADD14OC8,0.0714*%
%ADD15R,0.1104X0.0336*%
%ADD16C,0.0820*%
%ADD17OC8,0.0840*%
D10*
X000794Y001150D02*
X000796Y001187D01*
X000802Y001224D01*
X000811Y001260D01*
X000825Y001295D01*
X000842Y001328D01*
X000862Y001359D01*
X000885Y001388D01*
X000912Y001415D01*
X000941Y001438D01*
X000972Y001458D01*
X001005Y001475D01*
X001040Y001489D01*
X001076Y001498D01*
X001113Y001504D01*
X001150Y001506D01*
X001187Y001504D01*
X001224Y001498D01*
X001260Y001489D01*
X001295Y001475D01*
X001328Y001458D01*
X001359Y001438D01*
X001388Y001415D01*
X001415Y001388D01*
X001438Y001359D01*
X001458Y001328D01*
X001475Y001295D01*
X001489Y001260D01*
X001498Y001224D01*
X001504Y001187D01*
X001506Y001150D01*
X001504Y001113D01*
X001498Y001076D01*
X001489Y001040D01*
X001475Y001005D01*
X001458Y000972D01*
X001438Y000941D01*
X001415Y000912D01*
X001388Y000885D01*
X001359Y000862D01*
X001328Y000842D01*
X001295Y000825D01*
X001260Y000811D01*
X001224Y000802D01*
X001187Y000796D01*
X001150Y000794D01*
X001113Y000796D01*
X001076Y000802D01*
X001040Y000811D01*
X001005Y000825D01*
X000972Y000842D01*
X000941Y000862D01*
X000912Y000885D01*
X000885Y000912D01*
X000862Y000941D01*
X000842Y000972D01*
X000825Y001005D01*
X000811Y001040D01*
X000802Y001076D01*
X000796Y001113D01*
X000794Y001150D01*
X012494Y001150D02*
X012496Y001187D01*
X012502Y001224D01*
X012511Y001260D01*
X012525Y001295D01*
X012542Y001328D01*
X012562Y001359D01*
X012585Y001388D01*
X012612Y001415D01*
X012641Y001438D01*
X012672Y001458D01*
X012705Y001475D01*
X012740Y001489D01*
X012776Y001498D01*
X012813Y001504D01*
X012850Y001506D01*
X012887Y001504D01*
X012924Y001498D01*
X012960Y001489D01*
X012995Y001475D01*
X013028Y001458D01*
X013059Y001438D01*
X013088Y001415D01*
X013115Y001388D01*
X013138Y001359D01*
X013158Y001328D01*
X013175Y001295D01*
X013189Y001260D01*
X013198Y001224D01*
X013204Y001187D01*
X013206Y001150D01*
X013204Y001113D01*
X013198Y001076D01*
X013189Y001040D01*
X013175Y001005D01*
X013158Y000972D01*
X013138Y000941D01*
X013115Y000912D01*
X013088Y000885D01*
X013059Y000862D01*
X013028Y000842D01*
X012995Y000825D01*
X012960Y000811D01*
X012924Y000802D01*
X012887Y000796D01*
X012850Y000794D01*
X012813Y000796D01*
X012776Y000802D01*
X012740Y000811D01*
X012705Y000825D01*
X012672Y000842D01*
X012641Y000862D01*
X012612Y000885D01*
X012585Y000912D01*
X012562Y000941D01*
X012542Y000972D01*
X012525Y001005D01*
X012511Y001040D01*
X012502Y001076D01*
X012496Y001113D01*
X012494Y001150D01*
X012494Y015150D02*
X012496Y015187D01*
X012502Y015224D01*
X012511Y015260D01*
X012525Y015295D01*
X012542Y015328D01*
X012562Y015359D01*
X012585Y015388D01*
X012612Y015415D01*
X012641Y015438D01*
X012672Y015458D01*
X012705Y015475D01*
X012740Y015489D01*
X012776Y015498D01*
X012813Y015504D01*
X012850Y015506D01*
X012887Y015504D01*
X012924Y015498D01*
X012960Y015489D01*
X012995Y015475D01*
X013028Y015458D01*
X013059Y015438D01*
X013088Y015415D01*
X013115Y015388D01*
X013138Y015359D01*
X013158Y015328D01*
X013175Y015295D01*
X013189Y015260D01*
X013198Y015224D01*
X013204Y015187D01*
X013206Y015150D01*
X013204Y015113D01*
X013198Y015076D01*
X013189Y015040D01*
X013175Y015005D01*
X013158Y014972D01*
X013138Y014941D01*
X013115Y014912D01*
X013088Y014885D01*
X013059Y014862D01*
X013028Y014842D01*
X012995Y014825D01*
X012960Y014811D01*
X012924Y014802D01*
X012887Y014796D01*
X012850Y014794D01*
X012813Y014796D01*
X012776Y014802D01*
X012740Y014811D01*
X012705Y014825D01*
X012672Y014842D01*
X012641Y014862D01*
X012612Y014885D01*
X012585Y014912D01*
X012562Y014941D01*
X012542Y014972D01*
X012525Y015005D01*
X012511Y015040D01*
X012502Y015076D01*
X012496Y015113D01*
X012494Y015150D01*
X000794Y015150D02*
X000796Y015187D01*
X000802Y015224D01*
X000811Y015260D01*
X000825Y015295D01*
X000842Y015328D01*
X000862Y015359D01*
X000885Y015388D01*
X000912Y015415D01*
X000941Y015438D01*
X000972Y015458D01*
X001005Y015475D01*
X001040Y015489D01*
X001076Y015498D01*
X001113Y015504D01*
X001150Y015506D01*
X001187Y015504D01*
X001224Y015498D01*
X001260Y015489D01*
X001295Y015475D01*
X001328Y015458D01*
X001359Y015438D01*
X001388Y015415D01*
X001415Y015388D01*
X001438Y015359D01*
X001458Y015328D01*
X001475Y015295D01*
X001489Y015260D01*
X001498Y015224D01*
X001504Y015187D01*
X001506Y015150D01*
X001504Y015113D01*
X001498Y015076D01*
X001489Y015040D01*
X001475Y015005D01*
X001458Y014972D01*
X001438Y014941D01*
X001415Y014912D01*
X001388Y014885D01*
X001359Y014862D01*
X001328Y014842D01*
X001295Y014825D01*
X001260Y014811D01*
X001224Y014802D01*
X001187Y014796D01*
X001150Y014794D01*
X001113Y014796D01*
X001076Y014802D01*
X001040Y014811D01*
X001005Y014825D01*
X000972Y014842D01*
X000941Y014862D01*
X000912Y014885D01*
X000885Y014912D01*
X000862Y014941D01*
X000842Y014972D01*
X000825Y015005D01*
X000811Y015040D01*
X000802Y015076D01*
X000796Y015113D01*
X000794Y015150D01*
D11*
X001150Y001150D03*
X012850Y001150D03*
X012850Y015150D03*
X001150Y015150D03*
D12*
X009450Y004385D03*
X009450Y003715D03*
X010650Y003715D03*
X010650Y004385D03*
D13*
X002650Y003650D03*
D14*
X002650Y004650D03*
X002650Y005650D03*
X002650Y006650D03*
X002650Y007650D03*
X002650Y008650D03*
X002650Y009650D03*
X002650Y010650D03*
X002650Y011650D03*
X002650Y012650D03*
X001650Y012650D03*
X001650Y011650D03*
X001650Y010650D03*
X001650Y009650D03*
X001650Y008650D03*
X001650Y007650D03*
X001650Y006650D03*
X001650Y005650D03*
X001650Y004650D03*
X001650Y003650D03*
D15*
X006322Y003950D03*
X006322Y004450D03*
X006322Y004950D03*
X006322Y005450D03*
X006322Y005950D03*
X007778Y005950D03*
X007778Y005450D03*
X007778Y004950D03*
X007778Y004450D03*
X007778Y003950D03*
D16*
X012450Y003950D03*
X012450Y002950D03*
X012450Y004950D03*
X012450Y005950D03*
X012450Y006950D03*
X012450Y007950D03*
D17*
X007950Y008750D03*
X006950Y008750D03*
X005950Y008750D03*
X005950Y009950D03*
X006950Y009950D03*
X006250Y001750D03*
X005250Y001750D03*
M02*
